<svg width="111" height="17" viewBox="0 0 111 17" fill="none" xmlns="http://www.w3.org/2000/svg">
<g id="Group">
<path id="Vector" d="M4.69509 8.09546L2.71353 10.1328V13.3424H0.369141V0.783203H2.71353V7.23027L8.90941 0.783203H11.5329L6.25802 6.39299L11.8678 13.3424H9.13268L4.69509 8.09546Z" fill="black"/>
<path id="Vector_2" d="M18.5944 3.65723V5.77834C18.3991 5.75043 18.2316 5.72252 18.0641 5.72252C17.1989 5.72252 16.5012 5.9737 16.0268 6.47607C15.5244 6.97844 15.3011 7.70409 15.3011 8.68091V13.3139H13.0684V3.76886H15.1895V5.16433C15.8314 4.15959 16.9757 3.65723 18.5944 3.65723Z" fill="black"/>
<path id="Vector_3" d="M29.814 3.76912L25.3206 14.1235C24.902 15.1561 24.3996 15.9097 23.7856 16.3283C23.1995 16.747 22.4739 16.9703 21.6087 16.9703C21.1342 16.9703 20.6598 16.8865 20.1853 16.747C19.7108 16.5795 19.348 16.3842 19.041 16.1051L19.9341 14.4584C20.1574 14.6538 20.4086 14.8212 20.6877 14.9329C20.9668 15.0445 21.2738 15.1003 21.5808 15.1003C21.9715 15.1003 22.3064 14.9887 22.5576 14.7933C22.8088 14.598 23.06 14.2351 23.2553 13.7607L23.4228 13.3699L19.2364 3.74121H21.5808L24.6508 10.8581L27.6929 3.76912H29.814Z" fill="black"/>
<path id="Vector_4" d="M31.7667 13.147C31.0131 12.9516 30.427 12.7004 29.9805 12.3655L30.8457 10.663C31.2643 10.9421 31.7946 11.1933 32.4086 11.3608C33.0226 11.5282 33.6087 11.612 34.1948 11.612C35.5344 11.612 36.2043 11.2491 36.2043 10.5514C36.2043 10.2165 36.0368 9.99322 35.7019 9.85367C35.367 9.71413 34.8088 9.60249 34.0552 9.46294C33.2738 9.3513 32.6319 9.21176 32.1295 9.0443C31.6271 8.87685 31.2085 8.62566 30.8457 8.23493C30.4828 7.8442 30.2875 7.31392 30.2875 6.61619C30.2875 5.69518 30.6782 4.96953 31.4318 4.43926C32.1853 3.90898 33.218 3.62988 34.5018 3.62988C35.1716 3.62988 35.8135 3.71361 36.4834 3.85316C37.1532 3.99271 37.6835 4.21598 38.1021 4.46716L37.2369 6.16964C36.4275 5.69518 35.5065 5.44399 34.5018 5.44399C33.832 5.44399 33.3575 5.55563 32.9947 5.751C32.6598 5.94636 32.4923 6.19755 32.4923 6.53246C32.4923 6.89528 32.6877 7.14646 33.0505 7.28601C33.4133 7.42556 33.9715 7.56511 34.753 7.70465C35.5065 7.81629 36.1484 7.95584 36.6229 8.12329C37.1253 8.29075 37.5439 8.54193 37.8788 8.90475C38.2416 9.26758 38.4091 9.79786 38.4091 10.4956C38.4091 11.3887 38.0184 12.1143 37.2369 12.6446C36.4554 13.1749 35.3949 13.454 34.0552 13.454C33.2738 13.454 32.5202 13.3703 31.7667 13.147Z" fill="black"/>
<path id="Vector_5" d="M46.0849 12.8122C45.8337 13.0355 45.4988 13.2029 45.136 13.2866C44.7732 13.3983 44.3545 13.4541 43.9359 13.4541C42.8753 13.4541 42.066 13.175 41.5078 12.6168C40.9217 12.0586 40.6426 11.2772 40.6426 10.2166V5.61157H39.0518V3.82537H40.6426V1.64844H42.8753V3.82537H45.443V5.61157H42.8753V10.1608C42.8753 10.6353 42.987 10.9702 43.2103 11.2214C43.4335 11.4725 43.7684 11.5842 44.1871 11.5842C44.6894 11.5842 45.1081 11.4446 45.443 11.1934L46.0849 12.8122Z" fill="black"/>
<path id="Vector_6" d="M54.8487 4.66203C55.6023 5.33186 55.9651 6.36451 55.9651 7.73207V13.3419H53.844V12.1697C53.5649 12.5883 53.1742 12.8953 52.6718 13.1186C52.1695 13.3419 51.5554 13.4535 50.8298 13.4535C50.1042 13.4535 49.4901 13.3419 48.932 13.0907C48.4017 12.8395 47.983 12.5046 47.676 12.058C47.369 11.6115 47.2295 11.137 47.2295 10.5788C47.2295 9.71363 47.5365 9.0159 48.1784 8.51353C48.8203 7.98325 49.8251 7.73207 51.1926 7.73207H53.6766V7.59252C53.6766 6.92269 53.4812 6.42032 53.0625 6.0575C52.6718 5.69468 52.0578 5.52723 51.2764 5.52723C50.7461 5.52723 50.2158 5.61095 49.6855 5.77841C49.1552 5.94587 48.7366 6.16914 48.3738 6.47614L47.5086 4.8574C48.011 4.46667 48.625 4.18757 49.3227 3.99221C50.0204 3.79684 50.774 3.68521 51.5554 3.68521C53.0067 3.6573 54.0952 3.99221 54.8487 4.66203ZM52.7835 11.444C53.23 11.1928 53.537 10.83 53.7045 10.3276V9.21126H51.388C50.1042 9.21126 49.4622 9.6299 49.4622 10.4951C49.4622 10.9137 49.6297 11.2207 49.9367 11.4719C50.2716 11.7231 50.7182 11.8347 51.2764 11.8347C51.8624 11.8347 52.3648 11.6952 52.7835 11.444Z" fill="black"/>
<path id="Vector_7" d="M58.8389 0.0292969H61.0716V13.3421H58.8389V0.0292969Z" fill="black"/>
<path id="Vector_8" d="M74.7753 7.95591C75.194 8.48619 75.3893 9.15602 75.3893 9.93748C75.3893 11.0259 74.9707 11.8632 74.1334 12.4493C73.2961 13.0354 72.0681 13.3424 70.4773 13.3424H64.2256V0.783203H70.1145C71.5937 0.783203 72.7379 1.0623 73.5473 1.64839C74.3567 2.23449 74.7474 3.01595 74.7474 4.0486C74.7474 4.66261 74.6079 5.22079 74.3288 5.69525C74.0497 6.16971 73.659 6.53253 73.1566 6.81163C73.8264 7.0349 74.3846 7.42563 74.7753 7.95591ZM66.57 2.59731V6.05807H69.8633C70.6726 6.05807 71.3146 5.91853 71.7332 5.61153C72.1798 5.33243 72.3751 4.88588 72.3751 4.32769C72.3751 3.7416 72.1518 3.32296 71.7332 3.01595C71.2867 2.73686 70.6726 2.5694 69.8633 2.5694H66.57V2.59731ZM73.0449 9.68629C73.0449 8.48619 72.1518 7.87218 70.3377 7.87218H66.57V11.5004H70.3377C72.1518 11.5004 73.0449 10.9143 73.0449 9.68629Z" fill="black"/>
<path id="Vector_9" d="M84.5718 4.66203C85.3254 5.33186 85.6882 6.36451 85.6882 7.73207V13.3419H83.5671V12.1697C83.288 12.5883 82.8973 12.8953 82.3949 13.1186C81.8925 13.3418 81.2785 13.4535 80.5529 13.4535C79.8272 13.4535 79.2132 13.3419 78.6829 13.0907C78.1527 12.8395 77.734 12.5046 77.427 12.058C77.12 11.6115 76.9805 11.137 76.9805 10.5788C76.9805 9.71363 77.2875 9.0159 77.9294 8.51353C78.5713 7.98325 79.576 7.73207 80.9436 7.73207H83.4275V7.59252C83.4275 6.92269 83.2322 6.42032 82.8135 6.0575C82.4228 5.69468 81.8088 5.52723 81.0273 5.52723C80.497 5.52723 79.9668 5.61095 79.4365 5.77841C78.9062 5.94587 78.4876 6.16914 78.1248 6.47614L77.2317 4.8574C77.734 4.46667 78.348 4.18757 79.0458 3.99221C79.7435 3.79684 80.4971 3.68521 81.2785 3.68521C82.7298 3.6573 83.8183 3.99221 84.5718 4.66203ZM82.5344 11.444C82.981 11.1928 83.288 10.83 83.4554 10.3276V9.21126H81.139C79.8551 9.21126 79.2132 9.6299 79.2132 10.4951C79.2132 10.9137 79.3807 11.2207 79.6877 11.4719C80.0226 11.7231 80.4691 11.8347 81.0273 11.8347C81.5855 11.8347 82.0879 11.6952 82.5344 11.444Z" fill="black"/>
<path id="Vector_10" d="M96.9078 4.71778C97.6335 5.41552 97.9963 6.47607 97.9963 7.84363V13.3418H95.7635V8.12273C95.7635 7.28545 95.5682 6.64353 95.1774 6.22489C94.7867 5.80625 94.2285 5.58297 93.5029 5.58297C92.6656 5.58297 92.0237 5.83416 91.5492 6.33653C91.0748 6.83889 90.8236 7.53663 90.8236 8.48555V13.3418H88.5908V3.76886H90.7119V4.99688C91.0748 4.55033 91.5492 4.21541 92.1074 3.99214C92.6656 3.76886 93.3075 3.65723 94.0052 3.65723C95.2053 3.65723 96.1822 3.99214 96.9078 4.71778Z" fill="black"/>
<path id="Vector_11" d="M104.75 9.23939L103.076 10.8302V13.37H100.843V0.0292969H103.076V8.0672L107.736 3.76915H110.416L106.425 7.7881L110.806 13.3421H108.071L104.75 9.23939Z" fill="black"/>
</g>
</svg>
