<svg width="19" height="19" viewBox="0 0 19 19" fill="none" xmlns="http://www.w3.org/2000/svg">
<g id="ico_arrow-small-right">
<path id="Vector" d="M13.5068 7.54105L10.6679 4.70213C10.4451 4.47947 10.143 4.35442 9.82803 4.35449C9.51306 4.35457 9.21102 4.47976 8.98835 4.70253C8.76568 4.9253 8.64063 5.2274 8.64071 5.54237C8.64078 5.85734 8.76598 6.15939 8.98875 6.38205L10.9196 8.31293H3.9585C3.64355 8.31293 3.34151 8.43804 3.11881 8.66074C2.89611 8.88344 2.771 9.18548 2.771 9.50043C2.771 9.81537 2.89611 10.1174 3.11881 10.3401C3.34151 10.5628 3.64355 10.6879 3.9585 10.6879H10.9196L8.98875 12.6188C8.76598 12.8415 8.64078 13.1435 8.64071 13.4585C8.64063 13.7735 8.76568 14.0756 8.98835 14.2983C9.21102 14.5211 9.51306 14.6463 9.82803 14.6464C10.143 14.6464 10.4451 14.5214 10.6679 14.2987L13.5068 11.4598C14.0255 10.9396 14.3168 10.235 14.3168 9.50043C14.3168 8.76583 14.0255 8.0612 13.5068 7.54105V7.54105Z" fill="#2E2EC8"/>
</g>
</svg>
