<svg width="25" height="25" viewBox="0 0 25 25" fill="none" xmlns="http://www.w3.org/2000/svg">
<g id="ico_arrow-right" clip-path="url(#clip0_146_688)">
<path id="Vector" d="M19.1663 18.8508L23.0853 14.9318C23.7217 14.2649 24.0767 13.3786 24.0767 12.4568C24.0767 11.535 23.7217 10.6487 23.0853 9.9818L19.1663 6.0628C18.885 5.7814 18.5035 5.62326 18.1056 5.62317C17.7078 5.62308 17.3262 5.78103 17.0448 6.0623C16.7634 6.34356 16.6052 6.72508 16.6052 7.12294C16.6051 7.5208 16.763 7.9024 17.0443 8.1838L19.8243 10.9648L1.57428 10.9878C1.17646 10.9878 0.794924 11.1458 0.51362 11.4271C0.232315 11.7084 0.0742798 12.09 0.0742798 12.4878V12.4878C0.0742798 12.8856 0.232315 13.2672 0.51362 13.5485C0.794924 13.8298 1.17646 13.9878 1.57428 13.9878L19.8053 13.9648L17.0443 16.7298C16.771 17.0127 16.6199 17.3916 16.6233 17.7849C16.6267 18.1782 16.7844 18.5544 17.0626 18.8325C17.3407 19.1106 17.7169 19.2684 18.1102 19.2718C18.5035 19.2752 18.8824 19.124 19.1653 18.8508H19.1663Z" fill="white"/>
</g>
<defs>
<clipPath id="clip0_146_688">
<rect width="24" height="24" fill="white" transform="translate(0.0444336 0.456787)"/>
</clipPath>
</defs>
</svg>
